<svg id="Calque_1" data-name="Calque 1" xmlns="http://www.w3.org/2000/svg" viewBox="0 0 128 128"><path d="M116.15,108.66c1.61-5.1.33-9.46-3.38-13.18L81.3,64l21.76-21.76c3.34-3.34,6.7-6.65,10-10a11.79,11.79,0,0,0,3.57-10.9,30.87,30.87,0,0,0-2-5.26l-2.69-2.7a29.32,29.32,0,0,0-3.16-1.49c-5.18-1.71-9.61-.36-13.4,3.44L64,46.71,42.24,25c-3.34-3.34-6.65-6.7-10-10a11.79,11.79,0,0,0-10.9-3.57,30.87,30.87,0,0,0-5.26,2l-2.7,2.7a28.12,28.12,0,0,0-1.48,3.15c-1.72,5.18-.37,9.61,3.43,13.4L46.69,64,15.91,94.81a28.67,28.67,0,0,0-2.42,2.75c-4.86,6.26-1.72,16.21,5.86,18.6,5.1,1.61,9.46.33,13.18-3.38L64,81.31l30.8,30.8a30,30,0,0,0,2.75,2.41C103.81,119.39,113.76,116.24,116.15,108.66Z"/></svg>