<?xml version="1.0" encoding="UTF-8"?><svg id="Calque_1" xmlns="http://www.w3.org/2000/svg" viewBox="0 0 128 128"><defs><style>.cls-1{fill:#4969fb;}</style></defs><path class="cls-1" d="M38.13,17.84c1.2,.07,2.41,.08,3.6,.21,2.91,.32,5.75,.99,8.54,1.92,4.22,1.41,8.24,3.29,12.2,5.31,6.57,3.36,12.82,7.24,18.82,11.54,1.26,.9,2.53,1.81,3.78,2.72,.26,.19,.55,.37,.52,.77-.02,.34-.21,.5-.52,.54-.08,.01-.17,0-.26,0-1.56,.02-3.12,.02-4.68,.08-1.27,.05-2.54,.18-3.81,.27-.44,.03-.87,.06-1.31,.08-1.21,.05-2.43,.1-3.64,.15-1.82,.07-3.64,.15-5.47,.22-1.54,.06-3.09,.11-4.63,.14-3.24,.06-6.48,.12-9.72,.15-5.07,.04-10.14,.05-15.21,.07-1.21,0-2.41-.03-3.62-.07-1.4-.04-2.8-.09-4.19-.15-1.29-.06-2.57-.13-3.85-.22-1.51-.11-3.02-.23-4.53-.37-1.27-.12-2.55-.26-3.81-.43-2.31-.31-4.65-.54-6.84-1.39-.76-.3-1.51-.66-2.21-1.08-1.21-.73-1.33-1.77-.44-2.87,1.95-2.39,4.01-4.67,6.27-6.78,3.22-3,6.68-5.67,10.72-7.5,2.44-1.1,4.99-1.91,7.6-2.52,1.26-.29,2.55-.51,3.84-.65,.94-.1,1.89-.02,2.84-.02,0-.04,0-.09,0-.13Z"/><path class="cls-1" d="M74.48,55.74c.68-1,1.32-1.95,1.99-2.89,2.11-2.96,4.44-5.73,7.11-8.2,.73-.68,1.49-1.33,2.27-1.95,1.09-.89,1.47-1.99,1.16-3.36-.37-1.58-.48-3.19-.32-4.8,.24-2.43,.99-4.71,2.29-6.8,.11-.18,.11-.29-.03-.47-2.35-3.02-4.59-6.11-6.41-9.48-.72-1.33-1.37-2.7-1.94-4.09-.47-1.14-.27-2.27,.55-3.23,.52-.6,1.17-1.04,2.01-.76,.32,.11,.69,.34,.85,.63,.51,.88,.97,1.79,1.37,2.71,1.21,2.76,2.69,5.36,4.31,7.88,.71,1.11,1.45,2.21,2.19,3.34,.23-.19,.45-.34,.64-.52,.05-.05,.04-.2,0-.28-2.15-4.65-3.85-9.46-5.08-14.43-.36-1.43-.62-2.9-.82-4.36-.18-1.34,.23-2.4,1.37-3,1.21-.64,2.48-.16,2.9,1.14,.25,.77,.38,1.59,.52,2.4,.28,1.56,.47,3.14,.83,4.69,.82,3.59,1.89,7.11,3.19,10.56,.15,.41,.32,.8,.49,1.21,.66-.22,1.3-.45,1.96-.65,1.17-.36,2.37-.54,3.59-.59,3.83-.17,7.26,.93,10.27,3.28,2.81,2.2,4.61,5.09,5.51,8.54,.42,1.61,.53,3.26,.42,4.9-.18,2.84-1.2,5.37-2.94,7.63-1.49,1.92-3.25,3.55-5.31,4.84-.45,.28-.65,.66-.67,1.2-.05,1.63-.14,3.25-.22,4.91h-34.05Z"/><path class="cls-1" d="M84.25,42.1c-.52,.58-1.01,1.18-1.56,1.73-2.44,2.43-4.89,4.86-7.36,7.27-1.69,1.65-3.42,3.27-5.14,4.88-1.95,1.82-3.91,3.63-5.87,5.44-1.57,1.45-3.13,2.9-4.71,4.32-1.59,1.43-3.19,2.86-4.82,4.25-1.81,1.55-3.63,3.09-5.49,4.59-2.86,2.31-5.76,4.57-8.88,6.54-1.27,.8-2.61,1.46-4.09,1.8-.3,.07-.63,.14-.93,.1-.83-.12-1.19-.57-1.23-1.61-.06-1.88-.09-3.78,0-5.66,.25-5.08,1.29-9.96,3.74-14.48,2.45-4.51,5.94-7.98,10.41-10.47,3.11-1.74,6.43-2.97,9.83-4.02,3.4-1.05,6.85-1.92,10.35-2.57,2.21-.41,4.43-.8,6.65-1.17,1.52-.25,3.05-.47,4.58-.65,1.24-.14,2.48-.2,3.73-.3,.25-.02,.5-.05,.75-.08,.01,.03,.02,.06,.04,.09Z"/><path class="cls-1" d="M61.96,98.63c0-1.61-.02-3.17,0-4.72,.01-.96,.07-1.92,.14-2.87,.08-1.1,.19-2.19,.29-3.28,.03-.29,.21-.31,.45-.31,6.95,0,13.89,0,20.84,0,6.22,0,12.43,0,18.65,0h.5c-.21,.62-.39,1.2-.59,1.77-1.13,3.1-2.41,6.13-3.87,9.09-.12,.24-.25,.34-.54,.34-11.8-.01-23.59,0-35.39,0h-.47Z"/><path class="cls-1" d="M107.61,66.53c-.59,3.39-1.16,6.72-1.74,10.06h-41.25c.22-.74,.43-1.45,.66-2.15,.84-2.61,1.83-5.16,2.95-7.66,.09-.2,.19-.25,.4-.25,12.86,0,25.72,0,38.58,0h.4Z"/><path class="cls-1" d="M63.42,109.47h27.95c-.08,.11-.13,.2-.2,.27-1.4,1.55-2.84,3.08-4.21,4.66-2.5,2.88-5.42,5.25-8.58,7.36-3,2-6.16,3.67-9.61,4.76-.5,.16-.59,.17-.81-.34-.58-1.38-1.19-2.77-1.66-4.19-.94-2.84-1.66-5.75-2.23-8.69-.22-1.14-.44-2.28-.65-3.42-.02-.12,0-.24,0-.4Z"/></svg>