<svg id="Calque_1" data-name="Calque 1" xmlns="http://www.w3.org/2000/svg" viewBox="0 0 128 128"><defs><style>.cls-1{fill:#fff;}</style></defs><path class="cls-1" d="M15.35,36.33H1.54v-14H36.32V20.44c0-3.88,0-7.76,0-11.63.06-4.75,2.88-7.49,7.6-7.49h40.8c4.75,0,7.51,2.75,7.53,7.5,0,4.41,0,8.83,0,13.43h34.9v14H113.32v2.18q0,40.14,0,80.27a11.52,11.52,0,0,1-1,4.88,6.4,6.4,0,0,1-6.18,3.52q-41.61,0-83.23,0c-4.63,0-7.44-2.79-7.44-7.41q-.06-40.47-.09-80.93ZM99.12,113V36.41H29.52V113Zm-21-97.5H50.54V22.2H78.16Z"/><path class="cls-1" d="M57.27,99.15H43.47V50.27h13.8Z"/><path class="cls-1" d="M71.35,50.21H85.19V99.09H71.35Z"/></svg>