<svg id="Calque_1" data-name="Calque 1" xmlns="http://www.w3.org/2000/svg" viewBox="0 0 128 128"><defs><style>.cls-1{fill:#fff;}</style></defs><path class="cls-1" d="M45,82.68c.66-.8,1-1.3,1.4-1.71Q75.31,52,104.23,23.13c3.81-3.81,8.88-4.54,12.71-1.49a42.89,42.89,0,0,1,6.54,6.52,9.08,9.08,0,0,1-.31,11.54c-.44.53-.93,1-1.41,1.5L50.31,112.66c-3.62,3.61-7,3.6-10.56,0L6,78.85C1.09,74,1.1,68.69,6,63.83c1.18-1.18,2.34-2.38,3.54-3.54a9.35,9.35,0,0,1,13.56.1C30,67.25,36.87,74.17,43.76,81.08A19.46,19.46,0,0,1,45,82.68Z"/></svg>