<svg id="Calque_1" data-name="Calque 1" xmlns="http://www.w3.org/2000/svg" viewBox="0 0 128 128"><path d="M1.28,62.9c2.33-3,4.5-6.2,7-9A84.4,84.4,0,0,1,33.53,34.13a67.06,67.06,0,0,1,23.64-7c19.09-1.93,35.77,4,50.71,15.56a97.74,97.74,0,0,1,17.89,18.4,4.89,4.89,0,0,1,0,6.13C116.4,79.5,105.16,89.56,90.85,95.85a65.75,65.75,0,0,1-20.11,5.32c-16.63,1.67-31.65-2.73-45.43-11.89a94.86,94.86,0,0,1-22.87-22,17.55,17.55,0,0,1-1.16-2ZM64,90.42c14.17.29,26.82-12,26.36-27.11A26.36,26.36,0,1,0,64,90.42Z"/><path d="M78.26,64.06a14.21,14.21,0,1,1-14-14.16A14.1,14.1,0,0,1,78.26,64.06Z"/></svg>