<svg id="Calque_1" data-name="Calque 1" xmlns="http://www.w3.org/2000/svg" viewBox="0 0 128 128"><path d="M125.58,59.23C123.36,55,119.76,53,115,53H75V25.31c0-4.25,0-8.49,0-12.73a10.65,10.65,0,0,0-4.67-9.21A27.9,27.9,0,0,0,65.71,1.3H62.28a22.46,22.46,0,0,0-3,1.06C54.94,4.56,53,8.24,53,13.06V53H25.31c-4.25,0-8.49,0-12.73,0a10.65,10.65,0,0,0-9.21,4.67A27.9,27.9,0,0,0,1.3,62.29v3.43a22.46,22.46,0,0,0,1.06,3C4.56,73.06,8.24,75,13.06,75H53q0,19.59,0,39.17a27.81,27.81,0,0,0,.21,3.29c.89,7.08,9.22,11.41,15.56,8.11C73,123.36,75,119.76,75,115V75h39.18a27.81,27.81,0,0,0,3.29-.21C124.55,73.9,128.88,65.57,125.58,59.23Z"/></svg>