<?xml version="1.0" standalone="no"?>
<!DOCTYPE svg PUBLIC "-//W3C//DTD SVG 20010904//EN"
 "http://www.w3.org/TR/2001/REC-SVG-20010904/DTD/svg10.dtd">
<svg version="1.0" xmlns="http://www.w3.org/2000/svg"
 width="512.000000pt" height="512.000000pt" viewBox="0 0 512.000000 512.000000"
 preserveAspectRatio="xMidYMid meet">

<g transform="translate(0.000000,512.000000) scale(0.100000,-0.100000)"
fill="#000000" stroke="none">
<path d="M3740 4668 c-25 -14 -58 -44 -75 -67 l-30 -43 -5 -251 -5 -252 -252
-5 -251 -5 -43 -30 c-64 -45 -91 -104 -87 -186 4 -77 30 -123 92 -167 l39 -27
251 -5 251 -5 5 -251 c5 -247 5 -251 30 -287 14 -21 43 -50 64 -65 35 -24 49
-27 116 -27 67 0 81 3 116 27 21 15 50 44 64 65 25 36 25 40 30 287 l5 251
251 5 251 5 39 27 c21 15 50 44 64 65 21 31 25 48 25 113 0 67 -3 81 -27 116
-15 21 -44 50 -65 64 -36 25 -40 25 -287 30 l-251 5 -5 251 -5 251 -27 39
c-44 62 -90 88 -167 92 -55 3 -74 -1 -111 -20z"/>
<path d="M1840 4036 c-526 -111 -859 -617 -751 -1141 136 -661 912 -975 1474
-597 293 199 459 556 417 902 -49 396 -328 720 -708 822 -99 26 -336 34 -432
14z"/>
<path d="M1660 1909 c-610 -41 -967 -223 -1145 -584 -89 -182 -103 -264 -60
-352 29 -58 79 -97 145 -113 32 -8 457 -10 1455 -8 l1410 3 45 25 c101 57 136
174 90 303 -196 543 -627 741 -1600 735 -118 0 -271 -5 -340 -9z"/>
</g>
</svg>
