<?xml version="1.0" standalone="no"?>
<!DOCTYPE svg PUBLIC "-//W3C//DTD SVG 20010904//EN"
 "http://www.w3.org/TR/2001/REC-SVG-20010904/DTD/svg10.dtd">
<svg version="1.0" xmlns="http://www.w3.org/2000/svg"
 width="256.000000pt" height="256.000000pt" viewBox="0 0 256.000000 256.000000"
 preserveAspectRatio="xMidYMid meet">

<g transform="translate(0.000000,256.000000) scale(0.100000,-0.100000)"
fill="#000000" stroke="none">
<path d="M655 2431 c-48 -22 -79 -54 -100 -103 -13 -33 -15 -133 -15 -795 0
-714 2 -760 19 -798 22 -50 69 -91 119 -105 24 -6 331 -10 882 -10 800 0 847
1 885 19 48 22 79 54 100 103 13 32 15 115 15 603 0 610 0 606 -53 663 -53 57
-48 57 -501 62 l-418 5 -104 170 c-57 94 -114 178 -125 188 -19 15 -51 17
-343 17 -291 0 -325 -2 -361 -19z"/>
<path d="M115 1921 c-48 -22 -79 -54 -100 -103 -13 -33 -15 -133 -15 -795 0
-716 1 -760 19 -798 22 -48 54 -79 103 -100 33 -13 143 -15 890 -15 808 0 855
1 893 19 87 40 115 99 115 240 l0 100 -677 3 -678 3 -56 23 c-111 44 -186 138
-208 256 -7 39 -11 261 -11 623 l0 563 -117 0 c-93 0 -126 -4 -158 -19z"/>
</g>
</svg>
