<?xml version="1.0" standalone="no"?>
<!DOCTYPE svg PUBLIC "-//W3C//DTD SVG 20010904//EN"
 "http://www.w3.org/TR/2001/REC-SVG-20010904/DTD/svg10.dtd">
<svg version="1.0" xmlns="http://www.w3.org/2000/svg"
 width="512.000000pt" height="512.000000pt" viewBox="0 0 512.000000 512.000000"
 preserveAspectRatio="xMidYMid meet">

<g transform="translate(0.000000,512.000000) scale(0.100000,-0.100000)"
fill="#000000" stroke="none">
<path d="M2561 4469 c-260 -29 -565 -133 -781 -266 -338 -208 -630 -544 -767
-879 -21 -52 -41 -94 -44 -94 -4 0 -37 60 -74 133 -37 72 -79 147 -92 165 -56
75 -178 99 -263 51 -67 -37 -103 -95 -108 -174 l-4 -64 228 -448 c126 -246
239 -459 252 -474 51 -62 161 -86 239 -54 20 8 203 110 407 227 407 232 445
260 465 345 38 159 -117 304 -269 251 -18 -6 -118 -60 -222 -119 -113 -65
-188 -102 -188 -94 0 24 57 169 98 252 73 145 159 262 286 388 218 217 456
345 766 412 66 14 129 18 285 18 173 0 214 -3 304 -23 458 -103 824 -387 1032
-802 206 -412 206 -909 -1 -1322 -209 -415 -572 -697 -1031 -800 -90 -20 -131
-23 -304 -23 -223 0 -292 10 -475 71 -316 105 -588 315 -775 599 -93 141 -139
175 -235 175 -50 0 -140 -47 -168 -89 -59 -90 -53 -164 23 -286 390 -621 1094
-968 1816 -895 438 45 822 223 1142 529 380 365 587 851 587 1381 0 408 -120
782 -360 1123 -80 113 -295 332 -410 416 -245 181 -524 300 -820 352 -134 24
-409 33 -539 18z"/>
<path d="M2722 3620 c-57 -13 -108 -55 -136 -111 l-26 -53 0 -470 c0 -439 2
-474 19 -511 13 -26 139 -159 372 -391 385 -382 382 -380 485 -372 144 12 233
175 166 303 -12 23 -149 168 -316 335 l-296 295 0 388 c0 264 -4 403 -12 435
-16 64 -86 134 -150 150 -52 13 -59 13 -106 2z"/>
</g>
</svg>
