<?xml version="1.0" encoding="UTF-8"?><svg id="Calque_1" xmlns="http://www.w3.org/2000/svg" viewBox="0 0 128 128"><defs><style>.cls-1{fill:#a6b0bd;}.cls-2{fill:#5fbbff;}.cls-3{fill:#7f8a94;}.cls-4{fill:#586373;}.cls-5{fill:#c1c6ce;}.cls-6{fill:#ced6dd;}.cls-7{fill:#fefefe;}</style></defs><path class="cls-4" d="M116.96,61.52c1.13,.67,2.27,1.32,3.38,2.02,2.01,1.27,2.91,3.28,3.53,5.46v2.09c-.39,.34-.29,.85-.43,1.28-1.03,3.18-3.85,5.44-7.17,5.47-5.03,.04-10.06,.14-15.09-.06,0-2.98,.04-5.95,0-8.93-.02-.94,.22-1.27,1.22-1.25,3.98,.06,7.96,0,11.94,.04,.93,.01,1.3-.19,1.24-1.2-.08-1.62-.02-3.25-.02-4.87l1.41-.06Z"/><path class="cls-6" d="M115.55,61.58c0,1.62-.07,3.25,.02,4.87,.05,1.01-.31,1.21-1.24,1.2-3.98-.05-7.96,.01-11.94-.04-1-.01-1.23,.32-1.22,1.25,.05,2.98,.01,5.95,0,8.93-4.83,.02-9.65,.05-14.48,.07-.02-.62-.56-.91-.9-1.31-2.39-2.86-5.5-4.69-9.18-4.71-20.5-.11-41-.05-61.5-.04-.02-1.37-.04-2.75-.06-4.12,.03-2.04,.07-4.07,.1-6.11,4.44-.15,8.89,.24,13.33-.23,3.88-.4,7-3.84,7.1-7.72,.04-1.57-.45-2.95-.96-4.36,1,0,2.01,0,3.01,0,0,3.72,.03,7.44,0,11.16,0,.81,.15,1.16,1.07,1.16,18.44-.03,36.88-.02,55.32,0,.82,0,1.06-.25,1.05-1.06-.03-3.76-.01-7.51-.01-11.27,5.51,.02,10.18,2.04,14.1,5.86,.75,.73,1.45,1.49,2.18,2.23-3.09,.01-6.18,.03-9.27,.04-2.87,0-2.82,0-2.88,2.91-.02,1.04,.29,1.29,1.3,1.28,5.02-.04,10.04,0,15.07,.01Z"/><path class="cls-5" d="M15.12,71.8c20.5,0,41-.06,61.5,.04,3.69,.02,6.79,1.85,9.18,4.71,.33,.4,.88,.68,.9,1.31-3.55,1.33-7.21,2.29-10.81,3.43-5.12,1.62-10.29,3.04-15.37,4.76-1.83,.62-3.46,1.86-5.17,2.83-6.88,3.93-13.8,7.78-20.6,11.84-2.27,1.36-4.52,2.02-7.11,1.76-.77-.08-1.55-.03-2.32-.04,0-2.71,0-5.42,0-8.13,0-1.38,0-2.76,0-4.14,0-3.06-.02-6.11,.03-9.17,.02-.9-.31-1.1-1.14-1.09-3.02,.05-6.04,.03-9.05,.03,0-2.71-.02-5.43-.02-8.14Z"/><path class="cls-6" d="M45.76,49.24c15.04,0,30.08,.02,45.12,.02,0,2.28-.06,4.56,.02,6.84,.03,1.03-.27,1.3-1.3,1.29-8.12-.04-16.24-.02-24.36-.02-7.42,0-14.85-.02-22.27,.02-.93,0-1.19-.27-1.17-1.18,.06-2.32,.03-4.64,.03-6.96,1.31,0,2.62-.01,3.93-.02Z"/><path class="cls-3" d="M14.66,42.98c-1.95-4.63-3.9-9.26-5.85-13.89-.61-1.45-1.21-2.91-1.87-4.5,3.4,0,6.64,0,9.88,0,.39,0,.64,.22,.9,.45,6.9,5.92,13.81,11.83,20.71,17.75,.06,.05,.09,.12,.14,.18-7.97,0-15.94,0-23.91,0Z"/><path class="cls-1" d="M41.83,49.26c0,2.32,.03,4.64-.03,6.96-.02,.91,.24,1.19,1.17,1.18,7.42-.04,14.85-.02,22.27-.02,8.12,0,16.24-.02,24.36,.02,1.02,0,1.33-.26,1.3-1.29-.08-2.28-.02-4.56-.02-6.84,1.39,0,2.78-.02,4.17-.02,0,3.76-.02,7.51,.01,11.27,0,.81-.24,1.06-1.05,1.06-18.44-.02-36.88-.02-55.32,0-.92,0-1.08-.34-1.07-1.16,.03-3.72,0-7.44,0-11.16,1.4,0,2.8,0,4.2,0Z"/><path class="cls-6" d="M12.98,45.09c.79-.01,1.59-.02,2.38-.04,3.28,0,6.57,0,9.85,.02,2.48,.02,4.35,1.15,5.6,3.3,.17,.3,.37,.58,.55,.87,0,.27-.03,.55,.02,.81,.92,4.13-2.62,7.41-6.22,7.34-3.36-.06-6.72-.01-10.08-.01-.7,0-1.4-.02-2.1-.02,0-4.09,0-8.18,0-12.27Z"/><path class="cls-4" d="M31.37,49.24c-.19-.29-.38-.57-.55-.87-1.25-2.15-3.11-3.28-5.6-3.3-3.28-.03-6.57-.02-9.85-.02-.24-.69-.47-1.38-.71-2.07,7.97,0,15.94,0,23.91,0,2.46,2.02,4.99,3.96,7.19,6.27-1.31,0-2.62,.01-3.93,.02-1.4,0-2.8,0-4.2,0-1,0-2.01,0-3.01,0-1.09,0-2.17-.01-3.26-.02Z"/><path class="cls-1" d="M15.14,79.94c3.02,0,6.04,.02,9.05-.03,.83-.01,1.16,.19,1.14,1.09-.06,3.06-.03,6.11-.03,9.17-3.39,0-6.77,0-10.16,0,0-3.41,0-6.82,0-10.23Z"/><path class="cls-1" d="M12.98,45.09c0,4.09,0,8.18,0,12.27-1.12,0-2.23-.02-3.35,.03-1.33,.06-2.68-.22-3.99,.17-.28,.09-.5-.06-.74-.15-.01-3.82,0-7.64-.05-11.46,0-.74,.28-.9,.95-.89,2.39,.04,4.78,.03,7.18,.04Z"/><path class="cls-1" d="M25.3,94.31c0,2.71,0,5.42,0,8.13-3.12,0-6.25,0-9.37,.04-.67,0-.85-.25-.84-.88,.04-2.43,.04-4.86,.05-7.29,3.38,0,6.77,0,10.15,0Z"/><path class="cls-3" d="M4.91,57.41c.24,.09,.46,.25,.74,.15,1.76,.35,3.52,.7,5.28,1.05,0,3.27,0,6.55,0,9.82-1.74,.35-3.48,.68-5.2,1.08-.66,.15-.88,.08-.88-.65,.04-3.82,.04-7.64,.05-11.47Z"/><path class="cls-2" d="M115.55,61.58c-5.02-.01-10.04-.05-15.07-.01-1.01,0-1.32-.24-1.3-1.28,.06-2.91,.01-2.9,2.88-2.91,3.09,0,6.18-.03,9.27-.04,1.65,1.7,3.63,2.95,5.62,4.19-.47,.02-.94,.04-1.41,.06Z"/><path class="cls-3" d="M25.3,94.31c-3.38,0-6.77,0-10.15,0,0-1.38,0-2.76,0-4.14,3.39,0,6.77,0,10.16,0,0,1.38,0,2.76,0,4.14Z"/><path class="cls-4" d="M10.94,68.44c0-3.27,0-6.55,0-9.82,1.39,.25,2.77,.5,4.16,.75l.07,2.21c-.03,2.04-.07,4.07-.1,6.11-1.37,.25-2.75,.51-4.12,.76Z"/><path class="cls-5" d="M15.15,61.57c-.02-.74-.04-1.47-.07-2.21,0-.66,0-1.32,0-1.99,3.36,0,6.72-.05,10.08,.01,3.6,.07,7.14-3.21,6.22-7.34-.06-.26-.02-.54-.02-.81,1.09,0,2.17,.01,3.26,.02,.51,1.41,1,2.79,.96,4.36-.1,3.88-3.22,7.31-7.1,7.72-4.44,.46-8.89,.07-13.33,.23Z"/><path class="cls-7" d="M15.09,57.38c0,.66,0,1.32,0,1.99-1.39-.25-2.77-.5-4.16-.75-1.76-.35-3.52-.7-5.28-1.05,1.32-.39,2.66-.11,3.99-.17,1.11-.05,2.23-.02,3.35-.03,.7,0,1.4,.02,2.1,.02Z"/></svg>