<?xml version="1.0" standalone="no"?>
<!DOCTYPE svg PUBLIC "-//W3C//DTD SVG 20010904//EN"
 "http://www.w3.org/TR/2001/REC-SVG-20010904/DTD/svg10.dtd">
<svg version="1.0" xmlns="http://www.w3.org/2000/svg"
 width="256.000000pt" height="256.000000pt" viewBox="0 0 256.000000 256.000000"
 preserveAspectRatio="xMidYMid meet">

<g transform="translate(0.000000,256.000000) scale(0.100000,-0.100000)"
fill="#000000" stroke="none">
<path d="M1232 2335 c-60 -26 -62 -40 -62 -471 0 -328 2 -391 15 -419 36 -75
154 -75 190 0 13 28 15 91 15 419 0 434 -1 445 -64 471 -43 18 -52 18 -94 0z"/>
<path d="M760 1979 c-292 -189 -457 -516 -437 -863 26 -436 328 -786 762 -883
93 -20 297 -20 390 0 317 71 572 281 693 572 134 323 75 707 -152 984 -79 97
-211 202 -276 221 -67 19 -140 -30 -140 -94 0 -42 18 -66 93 -119 232 -166
360 -442 327 -708 -21 -173 -87 -314 -205 -435 -113 -115 -249 -189 -399 -215
-92 -16 -273 -6 -351 19 -294 93 -485 321 -526 628 -35 263 96 545 328 711 35
25 70 54 78 66 40 58 -5 144 -80 153 -35 5 -49 0 -105 -37z"/>
</g>
</svg>
