<?xml version="1.0" standalone="no"?>
<!DOCTYPE svg PUBLIC "-//W3C//DTD SVG 20010904//EN"
 "http://www.w3.org/TR/2001/REC-SVG-20010904/DTD/svg10.dtd">
<svg version="1.0" xmlns="http://www.w3.org/2000/svg"
 width="256.000000pt" height="256.000000pt" viewBox="0 0 256.000000 256.000000"
 preserveAspectRatio="xMidYMid meet">

<g transform="translate(0.000000,256.000000) scale(0.100000,-0.100000)"
fill="#fff" stroke="none">
<path d="M1295 2209 c-594 -192 -1111 -358 -1150 -370 -141 -43 -188 -158
-104 -254 28 -31 66 -46 485 -185 250 -84 461 -150 468 -147 7 3 190 129 407
279 217 151 400 278 408 283 19 11 34 33 -281 -418 -153 -218 -278 -403 -278
-410 0 -7 67 -214 150 -461 160 -480 166 -493 238 -517 75 -25 158 17 186 93
54 148 736 2289 736 2311 0 75 -77 148 -152 146 -18 0 -519 -158 -1113 -350z"/>
</g>
</svg>
