<?xml version="1.0" standalone="no"?>
<!DOCTYPE svg PUBLIC "-//W3C//DTD SVG 20010904//EN"
 "http://www.w3.org/TR/2001/REC-SVG-20010904/DTD/svg10.dtd">
<svg version="1.0" xmlns="http://www.w3.org/2000/svg"
 width="256.000000pt" height="256.000000pt" viewBox="0 0 256.000000 256.000000"
 preserveAspectRatio="xMidYMid meet">

<g transform="translate(0.000000,256.000000) scale(0.100000,-0.100000)"
fill="#000000" stroke="none">
<path d="M890 2413 c-42 -8 -203 -87 -282 -141 -117 -79 -143 -131 -114 -227
22 -70 20 -163 -4 -228 -36 -95 -138 -174 -247 -192 -56 -9 -104 -42 -125 -85
-41 -85 -49 -387 -12 -479 21 -53 54 -76 139 -96 83 -19 140 -51 185 -102 70
-80 93 -180 64 -284 -27 -99 -28 -149 -5 -186 40 -64 246 -194 375 -237 76
-26 110 -15 186 63 89 90 142 115 245 116 68 0 89 -4 137 -28 31 -15 73 -47
94 -70 74 -82 118 -96 203 -66 116 40 318 174 346 229 19 37 19 91 0 154 -31
103 -8 213 61 294 46 54 103 87 182 105 65 15 103 41 127 88 35 67 43 317 15
445 -14 63 -56 110 -114 124 -84 21 -131 44 -174 84 -90 82 -122 204 -87 327
30 109 6 154 -130 248 -80 56 -241 135 -289 144 -50 8 -96 -12 -160 -72 -75
-70 -136 -96 -226 -96 -88 0 -152 26 -220 90 -74 70 -112 87 -170 78z m554
-771 c91 -42 149 -100 194 -190 35 -72 37 -81 37 -172 0 -91 -2 -100 -37 -172
-45 -91 -103 -147 -196 -191 -61 -29 -76 -32 -162 -32 -86 0 -101 3 -162 32
-93 44 -151 100 -196 191 -35 72 -37 81 -37 171 0 87 3 102 32 163 40 85 97
147 172 186 78 42 122 52 213 48 61 -3 92 -11 142 -34z"/>
</g>
</svg>
