<svg id="Calque_1" data-name="Calque 1" xmlns="http://www.w3.org/2000/svg" viewBox="0 0 128 128"><path d="M2.1,123.05c.81-3.1,1.66-6.19,2.45-9.3C6.29,106.83,8,99.91,9.74,93a4.47,4.47,0,0,1,1.14-2Q44.92,56.93,79,22.87c.2-.19.42-.37.56-.5l26.91,26.9c-.23.23-.54.58-.87.91Q71.9,83.87,38.2,117.51a6.87,6.87,0,0,1-3,1.72C25.62,121.69,16,124,6.41,126.47A3.54,3.54,0,0,1,2.1,125Z"/><path d="M107.07,1.16l2.38.46A12.65,12.65,0,0,1,116,5.07c2.63,2.58,5.26,5.15,7.8,7.81a13.42,13.42,0,0,1,.18,18.89c-3.1,3.3-6.42,6.4-9.55,9.51L87.79,14.69C91.11,11.22,94.43,7.56,98,4.13a11,11,0,0,1,6.69-2.74,6.31,6.31,0,0,0,.93-.23Z"/></svg>