<svg id="Calque_1" data-name="Calque 1" xmlns="http://www.w3.org/2000/svg" viewBox="0 0 128 128"><defs><style>.cls-1{fill:#fff;}</style></defs><path d="M68.12,127H59.8c-1.53-.18-3.07-.34-4.59-.57A59.81,59.81,0,0,1,27,115C7.47,100-.92,80.06,1.9,55.62A56.62,56.62,0,0,1,13.28,27.51C28.27,7.88,48.2-.64,72.67,2.3,87.43,4.08,99.89,10.91,110,21.83a61,61,0,0,1,15.65,31.5c.4,2.27.65,4.57,1,6.86v8.32c-.08.39-.18.78-.24,1.17-.29,2.18-.45,4.38-.88,6.53a61.73,61.73,0,0,1-19,34.19A61.15,61.15,0,0,1,75,126.05C72.72,126.45,70.42,126.71,68.12,127Zm5.4-49.21c0-6.9,0-13.79,0-20.68a9.52,9.52,0,0,0-17.07-5.91,10.2,10.2,0,0,0-2,6.64q0,19.22,0,38.43a34.79,34.79,0,0,0,.19,3.53,9.49,9.49,0,0,0,18.88-1.57C73.54,91.44,73.52,84.63,73.52,77.82Zm-9.69-38.3A10.37,10.37,0,0,0,74.39,29.14,10.43,10.43,0,0,0,53.53,29,10.35,10.35,0,0,0,63.83,39.52Z"/><path class="cls-1" d="M68.12,127c2.3-.32,4.6-.58,6.88-1a61.15,61.15,0,0,0,31.48-15.65,61.73,61.73,0,0,0,19-34.19c.43-2.15.59-4.35.88-6.53.06-.39.16-.78.24-1.17V127Z"/></svg>